    <svg xmlns="http://www.w3.org/2000/svg" style="display: none">
      <symbol id="logo" width="108" height="29" viewBox="0 0 108 28">
        <path
          fill-rule="evenodd"
          clip-rule="evenodd"
          d="M107.097 23.2V28H98.6971C97.7905 28 97.0505 27.7067 96.4771 27.12C95.9038 26.5333 95.6171 25.7867 95.6171 24.88V12.96H89.7371V8.16H95.6171V0H100.657V8.16H107.817V12.96H100.657V22C100.657 22.8 101.017 23.2 101.737 23.2H107.097ZM9.12 28.56C11.7333 28.56 13.76 27.9733 15.2 26.8C16.64 25.6267 17.36 24.0533 17.36 22.08V21.84C17.36 20.0533 16.72 18.66 15.44 17.66C14.16 16.66 12.5067 16.0533 10.48 15.84C8.72 15.6533 7.50667 15.42 6.84 15.14C6.17333 14.86 5.84 14.4 5.84 13.76C5.84 13.3067 6.05333 12.9267 6.48 12.62C6.90667 12.3133 7.54667 12.16 8.4 12.16C9.33333 12.16 10.0933 12.3667 10.68 12.78C11.2667 13.1933 11.68 13.76 11.92 14.48L16.48 12.64C16.2667 12.08 15.96 11.5 15.56 10.9C15.16 10.3 14.64 9.75333 14 9.26C13.36 8.76667 12.58 8.36667 11.66 8.06C10.74 7.75333 9.65333 7.6 8.4 7.6C7.44 7.6 6.50667 7.73333 5.6 8C4.69333 8.26667 3.89333 8.66 3.2 9.18C2.50667 9.7 1.94667 10.3333 1.52 11.08C1.09333 11.8267 0.88 12.6933 0.88 13.68V13.92C0.88 15.8133 1.54 17.2467 2.86 18.22C4.18 19.1933 5.96 19.7733 8.2 19.96C9.02667 20.04 9.71333 20.1467 10.26 20.28C10.8067 20.4133 11.24 20.58 11.56 20.78C11.88 20.98 12.1 21.1933 12.22 21.42C12.34 21.6467 12.4 21.8933 12.4 22.16C12.4 22.6133 12.1667 23.0333 11.7 23.42C11.2333 23.8067 10.3733 24 9.12 24C7.70667 24 6.66 23.68 5.98 23.04C5.3 22.4 4.85333 21.6533 4.64 20.8L0 22.32C0.133333 23.0133 0.393333 23.7267 0.78 24.46C1.16667 25.1933 1.72 25.86 2.44 26.46C3.16 27.06 4.06667 27.56 5.16 27.96C6.25333 28.36 7.57333 28.56 9.12 28.56ZM31.5743 28.56C34.401 28.56 36.661 27.84 38.3543 26.4C40.0476 24.96 41.121 23.0667 41.5743 20.72L36.6143 19.48C36.3743 20.7867 35.8476 21.8267 35.0343 22.6C34.221 23.3733 33.041 23.76 31.4943 23.76C30.7743 23.76 30.0943 23.6467 29.4543 23.42C28.8143 23.1933 28.2543 22.8533 27.7743 22.4C27.2943 21.9467 26.9143 21.38 26.6343 20.7C26.3543 20.02 26.2143 19.24 26.2143 18.36V18.12C26.2143 17.24 26.3543 16.4467 26.6343 15.74C26.9143 15.0333 27.2943 14.4333 27.7743 13.94C28.2543 13.4467 28.8143 13.0667 29.4543 12.8C30.0943 12.5333 30.7743 12.4 31.4943 12.4C33.041 12.4 34.241 12.8267 35.0943 13.68C35.9476 14.5333 36.4543 15.5467 36.6143 16.72L41.5743 15.44C41.121 13.0933 40.0343 11.2 38.3143 9.76C36.5943 8.32 34.3476 7.6 31.5743 7.6C30.1343 7.6 28.781 7.84 27.5143 8.32C26.2476 8.8 25.141 9.49333 24.1943 10.4C23.2476 11.3067 22.5076 12.4 21.9743 13.68C21.441 14.96 21.1743 16.4 21.1743 18V18.48C21.1743 20.08 21.441 21.5067 21.9743 22.76C22.5076 24.0133 23.241 25.0667 24.1743 25.92C25.1076 26.7733 26.2076 27.4267 27.4743 27.88C28.741 28.3333 30.1076 28.56 31.5743 28.56ZM57.9286 27.88C56.6886 28.3333 55.3886 28.56 54.0286 28.56C52.6686 28.56 51.3686 28.3333 50.1286 27.88C48.8886 27.4267 47.7886 26.7667 46.8286 25.9C45.8686 25.0333 45.1086 23.9667 44.5486 22.7C43.9886 21.4333 43.7086 19.9733 43.7086 18.32V17.84C43.7086 16.2133 43.9886 14.7667 44.5486 13.5C45.1086 12.2333 45.8686 11.16 46.8286 10.28C47.7886 9.4 48.8886 8.73333 50.1286 8.28C51.3686 7.82667 52.6686 7.6 54.0286 7.6C55.3886 7.6 56.6886 7.82667 57.9286 8.28C59.1686 8.73333 60.2686 9.4 61.2286 10.28C62.1886 11.16 62.9486 12.2333 63.5086 13.5C64.0686 14.7667 64.3486 16.2133 64.3486 17.84V18.32C64.3486 19.9733 64.0686 21.4333 63.5086 22.7C62.9486 23.9667 62.1886 25.0333 61.2286 25.9C60.2686 26.7667 59.1686 27.4267 57.9286 27.88ZM54.0286 23.76C53.3086 23.76 52.6286 23.64 51.9886 23.4C51.3486 23.16 50.7886 22.8133 50.3086 22.36C49.8286 21.9067 49.4486 21.3533 49.1686 20.7C48.8886 20.0467 48.7486 19.3067 48.7486 18.48V17.68C48.7486 16.8533 48.8886 16.1133 49.1686 15.46C49.4486 14.8067 49.8286 14.2533 50.3086 13.8C50.7886 13.3467 51.3486 13 51.9886 12.76C52.6286 12.52 53.3086 12.4 54.0286 12.4C54.7486 12.4 55.4286 12.52 56.0686 12.76C56.7086 13 57.2686 13.3467 57.7486 13.8C58.2286 14.2533 58.6086 14.8067 58.8886 15.46C59.1686 16.1133 59.3086 16.8533 59.3086 17.68V18.48C59.3086 19.3067 59.1686 20.0467 58.8886 20.7C58.6086 21.3533 58.2286 21.9067 57.7486 22.36C57.2686 22.8133 56.7086 23.16 56.0686 23.4C55.4286 23.64 54.7486 23.76 54.0286 23.76ZM80.6229 27.88C79.3829 28.3333 78.0829 28.56 76.7229 28.56C75.3629 28.56 74.0629 28.3333 72.8229 27.88C71.5829 27.4267 70.4829 26.7667 69.5229 25.9C68.5629 25.0333 67.8029 23.9667 67.2429 22.7C66.6829 21.4333 66.4029 19.9733 66.4029 18.32V17.84C66.4029 16.2133 66.6829 14.7667 67.2429 13.5C67.8029 12.2333 68.5629 11.16 69.5229 10.28C70.4829 9.4 71.5829 8.73333 72.8229 8.28C74.0629 7.82667 75.3629 7.6 76.7229 7.6C78.0829 7.6 79.3829 7.82667 80.6229 8.28C81.8629 8.73333 82.9629 9.4 83.9229 10.28C84.8829 11.16 85.6429 12.2333 86.2029 13.5C86.7629 14.7667 87.0429 16.2133 87.0429 17.84V18.32C87.0429 19.9733 86.7629 21.4333 86.2029 22.7C85.6429 23.9667 84.8829 25.0333 83.9229 25.9C82.9629 26.7667 81.8629 27.4267 80.6229 27.88ZM76.7229 23.76C76.0029 23.76 75.3229 23.64 74.6829 23.4C74.0429 23.16 73.4829 22.8133 73.0029 22.36C72.5229 21.9067 72.1429 21.3533 71.8629 20.7C71.5829 20.0467 71.4429 19.3067 71.4429 18.48V17.68C71.4429 16.8533 71.5829 16.1133 71.8629 15.46C72.1429 14.8067 72.5229 14.2533 73.0029 13.8C73.4829 13.3467 74.0429 13 74.6829 12.76C75.3229 12.52 76.0029 12.4 76.7229 12.4C77.4429 12.4 78.1229 12.52 78.7629 12.76C79.4029 13 79.9629 13.3467 80.4429 13.8C80.9229 14.2533 81.3029 14.8067 81.5829 15.46C81.8629 16.1133 82.0029 16.8533 82.0029 17.68V18.48C82.0029 19.3067 81.8629 20.0467 81.5829 20.7C81.3029 21.3533 80.9229 21.9067 80.4429 22.36C79.9629 22.8133 79.4029 23.16 78.7629 23.4C78.1229 23.64 77.4429 23.76 76.7229 23.76Z"
          fill="#495567"
        />
      </symbol>

      <symbol id="logo-white" width="109" height="29" viewBox="0 0 109 29">
        <path fill-rule="evenodd" clip-rule="evenodd" d="M107.697 23.2V28H99.2972C98.3906 28 97.6506 27.7067 97.0772 27.12C96.5039 26.5333 96.2172 25.7867 96.2172 24.88V12.96H90.3372V8.16H96.2172V0H101.257V8.16H108.417V12.96H101.257V22C101.257 22.8 101.617 23.2 102.337 23.2H107.697ZM9.7201 28.56C12.3334 28.56 14.3601 27.9733 15.8001 26.8C17.2401 25.6267 17.9601 24.0533 17.9601 22.08V21.84C17.9601 20.0533 17.3201 18.66 16.0401 17.66C14.7601 16.66 13.1068 16.0533 11.0801 15.84C9.3201 15.6533 8.10676 15.42 7.4401 15.14C6.77343 14.86 6.4401 14.4 6.4401 13.76C6.4401 13.3067 6.65343 12.9267 7.0801 12.62C7.50676 12.3133 8.14676 12.16 9.0001 12.16C9.93343 12.16 10.6934 12.3667 11.2801 12.78C11.8668 13.1933 12.2801 13.76 12.5201 14.48L17.0801 12.64C16.8668 12.08 16.5601 11.5 16.1601 10.9C15.7601 10.3 15.2401 9.75333 14.6001 9.26C13.9601 8.76667 13.1801 8.36667 12.2601 8.06C11.3401 7.75333 10.2534 7.6 9.0001 7.6C8.0401 7.6 7.10676 7.73333 6.2001 8C5.29343 8.26667 4.49343 8.66 3.8001 9.18C3.10676 9.7 2.54676 10.3333 2.1201 11.08C1.69343 11.8267 1.4801 12.6933 1.4801 13.68V13.92C1.4801 15.8133 2.1401 17.2467 3.4601 18.22C4.7801 19.1933 6.5601 19.7733 8.8001 19.96C9.62676 20.04 10.3134 20.1467 10.8601 20.28C11.4068 20.4133 11.8401 20.58 12.1601 20.78C12.4801 20.98 12.7001 21.1933 12.8201 21.42C12.9401 21.6467 13.0001 21.8933 13.0001 22.16C13.0001 22.6133 12.7668 23.0333 12.3001 23.42C11.8334 23.8067 10.9734 24 9.7201 24C8.30676 24 7.2601 23.68 6.5801 23.04C5.9001 22.4 5.45343 21.6533 5.2401 20.8L0.600098 22.32C0.733431 23.0133 0.993431 23.7267 1.3801 24.46C1.76676 25.1933 2.3201 25.86 3.0401 26.46C3.7601 27.06 4.66676 27.56 5.7601 27.96C6.85343 28.36 8.17343 28.56 9.7201 28.56ZM32.1744 28.56C35.001 28.56 37.2611 27.84 38.9544 26.4C40.6477 24.96 41.7211 23.0667 42.1744 20.72L37.2144 19.48C36.9744 20.7867 36.4477 21.8267 35.6344 22.6C34.821 23.3733 33.641 23.76 32.0944 23.76C31.3744 23.76 30.6944 23.6467 30.0544 23.42C29.4144 23.1933 28.8544 22.8533 28.3744 22.4C27.8944 21.9467 27.5144 21.38 27.2344 20.7C26.9544 20.02 26.8144 19.24 26.8144 18.36V18.12C26.8144 17.24 26.9544 16.4467 27.2344 15.74C27.5144 15.0333 27.8944 14.4333 28.3744 13.94C28.8544 13.4467 29.4144 13.0667 30.0544 12.8C30.6944 12.5333 31.3744 12.4 32.0944 12.4C33.641 12.4 34.841 12.8267 35.6944 13.68C36.5477 14.5333 37.0544 15.5467 37.2144 16.72L42.1744 15.44C41.7211 13.0933 40.6344 11.2 38.9144 9.76C37.1944 8.32 34.9477 7.6 32.1744 7.6C30.7344 7.6 29.3811 7.84 28.1144 8.32C26.8477 8.8 25.7411 9.49333 24.7944 10.4C23.8477 11.3067 23.1077 12.4 22.5744 13.68C22.041 14.96 21.7744 16.4 21.7744 18V18.48C21.7744 20.08 22.041 21.5067 22.5744 22.76C23.1077 24.0133 23.8411 25.0667 24.7744 25.92C25.7077 26.7733 26.8077 27.4267 28.0744 27.88C29.3411 28.3333 30.7077 28.56 32.1744 28.56ZM58.5287 27.88C57.2887 28.3333 55.9887 28.56 54.6287 28.56C53.2687 28.56 51.9687 28.3333 50.7287 27.88C49.4887 27.4267 48.3887 26.7667 47.4287 25.9C46.4687 25.0333 45.7087 23.9667 45.1487 22.7C44.5887 21.4333 44.3087 19.9733 44.3087 18.32V17.84C44.3087 16.2133 44.5887 14.7667 45.1487 13.5C45.7087 12.2333 46.4687 11.16 47.4287 10.28C48.3887 9.4 49.4887 8.73333 50.7287 8.28C51.9687 7.82667 53.2687 7.6 54.6287 7.6C55.9887 7.6 57.2887 7.82667 58.5287 8.28C59.7687 8.73333 60.8687 9.4 61.8287 10.28C62.7887 11.16 63.5487 12.2333 64.1087 13.5C64.6687 14.7667 64.9487 16.2133 64.9487 17.84V18.32C64.9487 19.9733 64.6687 21.4333 64.1087 22.7C63.5487 23.9667 62.7887 25.0333 61.8287 25.9C60.8687 26.7667 59.7687 27.4267 58.5287 27.88ZM54.6287 23.76C53.9087 23.76 53.2287 23.64 52.5887 23.4C51.9487 23.16 51.3887 22.8133 50.9087 22.36C50.4287 21.9067 50.0487 21.3533 49.7687 20.7C49.4887 20.0467 49.3487 19.3067 49.3487 18.48V17.68C49.3487 16.8533 49.4887 16.1133 49.7687 15.46C50.0487 14.8067 50.4287 14.2533 50.9087 13.8C51.3887 13.3467 51.9487 13 52.5887 12.76C53.2287 12.52 53.9087 12.4 54.6287 12.4C55.3487 12.4 56.0287 12.52 56.6687 12.76C57.3087 13 57.8687 13.3467 58.3487 13.8C58.8287 14.2533 59.2087 14.8067 59.4887 15.46C59.7687 16.1133 59.9087 16.8533 59.9087 17.68V18.48C59.9087 19.3067 59.7687 20.0467 59.4887 20.7C59.2087 21.3533 58.8287 21.9067 58.3487 22.36C57.8687 22.8133 57.3087 23.16 56.6687 23.4C56.0287 23.64 55.3487 23.76 54.6287 23.76ZM81.223 27.88C79.983 28.3333 78.683 28.56 77.323 28.56C75.963 28.56 74.663 28.3333 73.423 27.88C72.183 27.4267 71.083 26.7667 70.123 25.9C69.163 25.0333 68.403 23.9667 67.8429 22.7C67.283 21.4333 67.003 19.9733 67.003 18.32V17.84C67.003 16.2133 67.283 14.7667 67.8429 13.5C68.403 12.2333 69.163 11.16 70.123 10.28C71.083 9.4 72.183 8.73333 73.423 8.28C74.663 7.82667 75.963 7.6 77.323 7.6C78.683 7.6 79.983 7.82667 81.223 8.28C82.463 8.73333 83.563 9.4 84.5229 10.28C85.483 11.16 86.243 12.2333 86.8029 13.5C87.363 14.7667 87.643 16.2133 87.643 17.84V18.32C87.643 19.9733 87.363 21.4333 86.8029 22.7C86.243 23.9667 85.483 25.0333 84.5229 25.9C83.563 26.7667 82.463 27.4267 81.223 27.88ZM77.323 23.76C76.603 23.76 75.923 23.64 75.283 23.4C74.643 23.16 74.083 22.8133 73.603 22.36C73.123 21.9067 72.743 21.3533 72.463 20.7C72.183 20.0467 72.043 19.3067 72.043 18.48V17.68C72.043 16.8533 72.183 16.1133 72.463 15.46C72.743 14.8067 73.123 14.2533 73.603 13.8C74.083 13.3467 74.643 13 75.283 12.76C75.923 12.52 76.603 12.4 77.323 12.4C78.043 12.4 78.723 12.52 79.363 12.76C80.003 13 80.563 13.3467 81.043 13.8C81.523 14.2533 81.903 14.8067 82.183 15.46C82.463 16.1133 82.603 16.8533 82.603 17.68V18.48C82.603 19.3067 82.463 20.0467 82.183 20.7C81.903 21.3533 81.523 21.9067 81.043 22.36C80.563 22.8133 80.003 23.16 79.363 23.4C78.723 23.64 78.043 23.76 77.323 23.76Z" fill="white"/> 
      </symbol>


      <symbol id="locate-icon" viewBox="0 0 96 96">
        <circle cx="48" cy="48" r="48" fill="#FCB72B"/>
        <path fill-rule="evenodd" clip-rule="evenodd" d="M53.7995 24H33.0106C30.8037 24.0028 29.0155 25.791 29.0127 27.9979V67.9765C29.0155 70.1834 30.8037 71.9716 33.0106 71.9744H52.9999V70.544C52.9961 66.9421 54.0623 63.4194 56.0639 60.4246C56.2758 60.1071 56.2332 59.6848 55.9639 59.4155L50.3669 53.8185C49.8496 53.3006 49.5753 52.5884 49.6115 51.8573C49.6479 51.1259 49.9915 50.4447 50.5572 49.9805C51.6468 49.1476 53.1878 49.2665 54.1369 50.2562L62.0295 58.149L63.1601 57.0184L57.7973 51.6541V27.9979C57.7945 25.791 56.0063 24.0028 53.7995 24ZM56.1982 50.0549L55.2675 49.1242C53.7335 47.557 51.2664 47.3937 49.5393 48.7456C48.6258 49.4964 48.0715 50.5986 48.0138 51.7802C47.9562 52.9616 48.4 54.1123 49.2363 54.9491L54.3776 60.0906C52.4602 63.1803 51.4319 66.7392 51.4064 70.3753H33.0106C31.6861 70.3753 30.6118 69.301 30.6118 67.9765V65.5778H50.6012V63.9787H30.6118V30.3966H56.1982V50.0549ZM30.6118 28.7974H56.1982V27.9979C56.1982 26.6734 55.124 25.5991 53.7995 25.5991H33.0106C31.6861 25.5991 30.6118 26.6734 30.6118 27.9979V28.7974ZM60.1549 42.6005L59.0767 43.7791L63.9802 48.2743C65.1346 49.3363 65.7927 50.8327 65.7931 52.4009V71.9744H67.3922V52.4009C67.3902 50.3839 66.5443 48.4606 65.0591 47.0955L60.1549 42.6005ZM33.8101 38.3923H37.0084C37.8918 38.3923 38.6076 37.6765 38.6076 36.7932V33.5949C38.6076 32.7116 37.8918 31.9957 37.0084 31.9957H33.8101C32.9268 31.9957 32.211 32.7116 32.211 33.5949V36.7932C32.211 37.6765 32.9268 38.3923 33.8101 38.3923ZM33.8101 33.5949H37.0084V36.7932H33.8101V33.5949ZM45.0042 38.3923H41.8059C40.9225 38.3923 40.2067 37.6765 40.2067 36.7932V33.5949C40.2067 32.7116 40.9225 31.9957 41.8059 31.9957H45.0042C45.8875 31.9957 46.6033 32.7116 46.6033 33.5949V36.7932C46.6033 37.6765 45.8875 38.3923 45.0042 38.3923ZM45.0042 33.5949H41.8059V36.7932H45.0042V33.5949ZM49.8016 38.3923H52.9999C53.8832 38.3923 54.599 37.6765 54.599 36.7932V33.5949C54.599 32.7116 53.8832 31.9957 52.9999 31.9957H49.8016C48.9183 31.9957 48.2025 32.7116 48.2025 33.5949V36.7932C48.2025 37.6765 48.9183 38.3923 49.8016 38.3923ZM49.8016 33.5949H52.9999V36.7932H49.8016V33.5949ZM37.0084 46.3881H33.8101C32.9268 46.3881 32.211 45.6722 32.211 44.7889V41.5906C32.211 40.7073 32.9268 39.9915 33.8101 39.9915H37.0084C37.8918 39.9915 38.6076 40.7073 38.6076 41.5906V44.7889C38.6076 45.6722 37.8918 46.3881 37.0084 46.3881ZM37.0084 41.5906H33.8101V44.7889H37.0084V41.5906ZM33.8101 54.3838H37.0084C37.8918 54.3838 38.6076 53.668 38.6076 52.7846V49.5864C38.6076 48.703 37.8918 47.9872 37.0084 47.9872H33.8101C32.9268 47.9872 32.211 48.703 32.211 49.5864V52.7846C32.211 53.668 32.9268 54.3838 33.8101 54.3838ZM33.8101 49.5864H37.0084V52.7846H33.8101V49.5864ZM45.0042 46.3881H41.8059C40.9225 46.3881 40.2067 45.6722 40.2067 44.7889V41.5906C40.2067 40.7073 40.9225 39.9915 41.8059 39.9915H45.0042C45.8875 39.9915 46.6033 40.7073 46.6033 41.5906V44.7889C46.6033 45.6722 45.8875 46.3881 45.0042 46.3881ZM45.0042 41.5906H41.8059V44.7889H45.0042V41.5906ZM49.8016 46.3881H52.9999C53.8832 46.3881 54.599 45.6722 54.599 44.7889V41.5906C54.599 40.7073 53.8832 39.9915 52.9999 39.9915H49.8016C48.9183 39.9915 48.2025 40.7073 48.2025 41.5906V44.7889C48.2025 45.6722 48.9183 46.3881 49.8016 46.3881ZM49.8016 41.5906H52.9999V44.7889H49.8016V41.5906ZM45.0042 54.3838H41.8059C40.9225 54.3838 40.2067 53.668 40.2067 52.7846V49.5864C40.2067 48.703 40.9225 47.9872 41.8059 47.9872H45.0042C45.8875 47.9872 46.6033 48.703 46.6033 49.5864V52.7846C46.6033 53.668 45.8875 54.3838 45.0042 54.3838ZM45.0042 49.5864H41.8059V52.7846H45.0042V49.5864ZM33.8101 62.3795H37.0084C37.8918 62.3795 38.6076 61.6637 38.6076 60.7804V57.5821C38.6076 56.6988 37.8918 55.9829 37.0084 55.9829H33.8101C32.9268 55.9829 32.211 56.6988 32.211 57.5821V60.7804C32.211 61.6637 32.9268 62.3795 33.8101 62.3795ZM33.8101 57.5821H37.0084V60.7804H33.8101V57.5821ZM45.0042 62.3795H41.8059C40.9225 62.3795 40.2067 61.6637 40.2067 60.7804V57.5821C40.2067 56.6988 40.9225 55.9829 41.8059 55.9829H45.0042C45.8875 55.9829 46.6033 56.6988 46.6033 57.5821V60.7804C46.6033 61.6637 45.8875 62.3795 45.0042 62.3795ZM45.0042 57.5821H41.8059V60.7804H45.0042V57.5821ZM44.2046 67.177H42.6054V68.7761H44.2046V67.177Z" fill="#495567"/>
      </symbol>


      <symbol id="scooter-icon" viewBox="0 0 96 96">
        <circle cx="48" cy="48" r="48" fill="#FCB72B"/>
        <path d="M45.07 62.301C44.8523 62.301 44.6392 62.3895 44.4854 62.5433C44.3317 62.697 44.2432 62.9105 44.2432 63.1279C44.2432 63.3453 44.3317 63.5588 44.4854 63.7125C44.6392 63.8663 44.8523 63.9548 45.07 63.9548C45.2874 63.9548 45.5006 63.8663 45.6547 63.7125C45.8084 63.5588 45.8969 63.3462 45.8969 63.1279C45.8969 62.9105 45.8084 62.697 45.6547 62.5433C45.5006 62.3895 45.2874 62.301 45.07 62.301Z" fill="black"/>
        <path fill-rule="evenodd" clip-rule="evenodd" d="M61.5391 48.4188L59.6121 39.7131C60.1321 39.6427 60.5908 39.3781 60.9134 38.9951C61.2943 39.2331 61.7435 39.3714 62.2248 39.3714H63.8786C64.3353 39.3714 64.7054 39.0012 64.7054 38.5445V35.237C64.7054 34.7803 64.3353 34.4101 63.8786 34.4101H62.2248C61.7293 34.4101 61.2674 34.5568 60.8795 34.8084C60.501 34.3804 59.9483 34.1097 59.3333 34.1097H54.4522C53.5753 34.1097 52.8246 34.6598 52.5258 35.4327H50.5659C49.3805 35.4327 48.416 36.3972 48.416 37.5826C48.416 38.768 49.3805 39.7325 50.5659 39.7325H54.822V41.3988C54.822 41.8555 55.1922 42.2257 55.6489 42.2257C56.1056 42.2257 56.4758 41.8555 56.4758 41.3988V39.7325H57.9228L59.9984 49.1107L56.0701 56.1075C55.6408 56.8691 54.8314 57.3423 53.957 57.3423H44.1505C43.74 53.8995 40.8046 51.2208 37.2532 51.2208C35.6818 51.2208 34.1993 51.7328 32.9658 52.7011L32.9609 52.705C31.4922 53.8601 30.5691 55.5177 30.354 57.3423H28.6557C28.7636 51.3978 33.6328 46.5955 39.6021 46.5955H45.4677C45.9306 46.5955 46.3075 46.9725 46.3075 47.4356V54.8617C46.3075 55.3184 46.6776 55.6885 47.1344 55.6885H51.5342C53.3291 55.6885 54.9832 54.7124 55.8508 53.1417C56.2523 52.415 56.4651 51.592 56.4658 50.7622L56.47 48.0151C56.4706 47.5584 56.1008 47.1876 55.6441 47.1869H55.6431C55.187 47.1869 54.8169 47.5564 54.8162 48.0125L54.812 50.7603C54.8117 51.3119 54.6702 51.8591 54.4034 52.342C53.8265 53.3859 52.7271 54.0345 51.5342 54.0345H47.9612V47.4353C47.9612 47.0119 47.8547 46.6126 47.6676 46.2628C48.4105 45.8336 48.9118 45.0312 48.9118 44.1136C48.9118 42.7457 47.7988 41.633 46.4312 41.633H43.4131C43.1231 41.633 42.845 41.6834 42.5862 41.7751V34.5219C42.5862 33.154 41.4732 32.0413 40.1056 32.0413H34.7713C30.9044 32.0413 27.6886 34.8804 27.0975 38.5832C27.0727 38.6621 27.0591 38.7457 27.0591 38.8326C27.0591 38.8352 27.0593 38.8378 27.0594 38.8403C27.0596 38.8427 27.0598 38.8451 27.0598 38.8475C27.0203 39.164 27 39.486 27 39.8126V44.1139C27 45.3559 27.9176 46.3875 29.1105 46.5668L30.9415 48.3978C28.5155 50.6963 27 53.9463 27 57.5442V58.1692C27 58.6259 27.3702 58.996 27.8269 58.996H32.4738C32.4632 59.0493 32.4574 59.1049 32.4574 59.1614C32.4574 60.3614 32.9015 61.4592 33.6328 62.3009H27.8269C27.3702 62.3009 27 62.6714 27 63.1278C27 63.5845 27.3702 63.9547 27.8269 63.9547H37.1576L37.1852 63.9556C37.2079 63.9565 37.2305 63.9573 37.2532 63.9573C39.8976 63.9573 42.0491 61.8058 42.0491 59.1614C42.0491 59.1049 42.0433 59.0493 42.0326 58.996H53.957C55.259 58.996 56.4758 58.372 57.2384 57.3397H58.2855C58.0501 57.9127 57.9251 58.5303 57.9251 59.1614C57.9251 60.3614 58.3692 61.4592 59.1005 62.3009H48.3773C47.9205 62.3009 47.5504 62.6714 47.5504 63.1278C47.5504 63.5845 47.9205 63.9547 48.3773 63.9547H62.6253C62.6573 63.9557 62.689 63.9573 62.7209 63.9573C65.3653 63.9573 67.5168 61.8058 67.5168 59.1614C67.5168 58.5303 67.3918 57.9127 67.1563 57.3397H68.509C68.9658 57.3397 69.3359 56.9696 69.3359 56.5128C69.3359 52.1482 65.8653 48.5787 61.5391 48.4188ZM43.4131 43.2871H46.4312C46.887 43.2871 47.2581 43.6579 47.2581 44.1139C47.2581 44.5697 46.887 44.9408 46.4312 44.9408H43.4131C42.957 44.9408 42.5862 44.5697 42.5862 44.1139C42.5862 43.6579 42.957 43.2871 43.4131 43.2871ZM28.656 39.7109L28.656 39.7109C28.6549 39.7448 28.6537 39.7786 28.6537 39.8126V44.1139C28.6537 44.5697 29.0245 44.9408 29.4803 44.9408H29.4809H40.1053C40.5614 44.9408 40.9322 44.5697 40.9322 44.1139V34.5222C40.9322 34.0661 40.5614 33.6953 40.1053 33.6953H34.7713C32.0268 33.6953 29.699 35.5119 28.9264 38.0061H37.7057C38.1625 38.0061 38.5326 38.3762 38.5326 38.8329C38.5326 39.2896 38.1625 39.6598 37.7057 39.6598H28.6576L28.656 39.7109ZM31.4771 46.5946H33.3692C32.9719 46.8213 32.5885 47.0697 32.2196 47.3371L31.4771 46.5946ZM37.2852 62.3026C39.0029 62.2854 40.3953 60.8833 40.3953 59.1614C40.3953 59.1049 40.4012 59.0493 40.4118 58.996H34.0946C34.1053 59.0493 34.1111 59.1049 34.1111 59.1614C34.1111 60.862 35.4693 62.2502 37.1579 62.3009H37.2532C37.2593 62.3009 37.2654 62.3014 37.2715 62.3018C37.2761 62.3021 37.2806 62.3024 37.2852 62.3026ZM32.0226 57.3423C32.2274 56.0287 32.9173 54.842 33.9829 54.0051C33.9855 54.0035 33.9877 54.0012 33.9903 53.9996C34.9289 53.2638 36.0572 52.8746 37.2532 52.8746C39.8915 52.8746 42.0849 54.8142 42.4832 57.3423H32.0226ZM63.0517 36.0639H62.2248C61.7687 36.0639 61.3979 36.435 61.3979 36.8907C61.3979 37.3468 61.7687 37.7176 62.2248 37.7176H63.0517V36.0639ZM50.0698 37.5826C50.0698 37.309 50.2923 37.0865 50.5659 37.0865H52.3876V37.6679C52.3876 37.8087 52.4018 37.946 52.4286 38.0787H50.5659C50.2923 38.0787 50.0698 37.8562 50.0698 37.5826ZM54.4522 38.0787H55.6489H59.3333C59.5598 38.0787 59.7442 37.8946 59.7442 37.6679V36.1743C59.7442 35.9479 59.5598 35.7635 59.3333 35.7635H54.4522C54.2258 35.7635 54.0413 35.9479 54.0413 36.1743V37.6679C54.0413 37.8946 54.2258 38.0787 54.4522 38.0787ZM65.863 59.1614C65.863 60.8833 64.4706 62.2854 62.7529 62.3026C62.7507 62.3025 62.7484 62.3024 62.7462 62.3023C62.7438 62.3021 62.7415 62.302 62.7392 62.3018C62.7331 62.3014 62.727 62.301 62.7209 62.301H62.6256C60.937 62.2502 59.5788 60.862 59.5788 59.1614C59.5788 58.5044 59.7836 57.8694 60.1609 57.3397H65.281C65.6583 57.8694 65.863 58.5044 65.863 59.1614ZM61.3563 50.07L58.2032 55.686H67.6292C67.2274 52.5597 64.5762 50.1291 61.3563 50.07Z" fill="#495567"/>
        <path d="M55.6488 45.5334C56.1055 45.5334 56.4757 45.1632 56.4757 44.7065C56.4757 44.2498 56.1055 43.8796 55.6488 43.8796H55.6459C55.1892 43.8796 54.8203 44.2498 54.8203 44.7065C54.8203 45.1632 55.1921 45.5334 55.6488 45.5334Z" fill="black"/>
      </symbol>

      <symbol id="enjoy-ride-icon" viewBox="0 0 96 96">
        <circle cx="48" cy="48" r="48" fill="#FCB72B"/>
        <path fill-rule="evenodd" clip-rule="evenodd" d="M64.1713 46H66C66.3682 46 66.6667 45.7015 66.6667 45.3333V40C66.6667 39.6318 66.3682 39.3333 66 39.3333H59.7453L58.6667 37.176V34.6667C58.6667 34.2985 58.3682 34 58 34H54C53.6318 34 53.3333 34.2985 53.3333 34.6667V37.3333C53.3333 37.7015 53.6318 38 54 38H57.588L58.6667 40.1573V44C58.6667 42.8954 57.7712 42 56.6667 42C55.5621 42 54.6667 42.8954 54.6667 44V42.6667C54.6667 42.2985 54.3682 42 54 42H48.7487L46.6667 41.4793V30.6667C46.6667 29.1939 45.4728 28 44 28H41.3333C39.8606 28 38.6667 29.1939 38.6667 30.6667V38H35.3333C34.2288 38 33.3333 38.8954 33.3333 40V42H28.6667C28.3971 42.0001 28.154 42.1625 28.0509 42.4116C27.9477 42.6606 28.0047 42.9473 28.1953 43.138L29.724 44.6667L28.1953 46.1953C28.0047 46.386 27.9477 46.6727 28.0509 46.9218C28.154 47.1708 28.3971 47.3333 28.6667 47.3333H35.3333C36.4379 47.3333 37.3333 46.4379 37.3333 45.3333V43.3333H38.6667V50H36.6667C34.3489 50.0027 32.3844 51.706 32.0533 54H30C29.6318 54 29.3333 54.2985 29.3333 54.6667V57.3333C29.3333 57.7015 29.6318 58 30 58H32V59.3333H28.6667C28.2985 59.3333 28 59.6318 28 60V62.6667C28 63.0349 28.2985 63.3333 28.6667 63.3333H36C36 65.9107 38.0893 68 40.6667 68C43.244 68 45.3333 65.9107 45.3333 63.3333H57.3333C57.3333 65.9107 59.4227 68 62 68C64.5773 68 66.6667 65.9107 66.6667 63.3333H67.3333C67.5366 63.3335 67.7288 63.2409 67.8554 63.0818C67.982 62.9228 68.0291 62.7147 67.9833 62.5167L64.1713 46ZM54.6667 44C54.6667 45.1046 55.5621 46 56.6667 46C57.7712 46 58.6667 45.1046 58.6667 44V58H56.6667V57.3333C56.6667 56.2288 55.7712 55.3333 54.6667 55.3333V48C54.6667 47.6318 54.3682 47.3333 54 47.3333H46.6667V45.5207L48.5047 45.98C48.5576 45.9933 48.6121 46 48.6667 46H54C54.3682 46 54.6667 45.7015 54.6667 45.3333V44ZM57.3333 36.6667H54.6667V35.3333H57.3333V36.6667ZM32 62V60.6667H29.3333V62H32ZM32 56.6667H30.6667V55.3333H32V56.6667ZM65.3333 40.6667H64V44.6667H65.3333V40.6667ZM60 40.6667H62.6667V44.6667H60V40.6667ZM55.3333 57.3333C55.3333 56.9651 55.0349 56.6667 54.6667 56.6667H52V58H55.3333V57.3333ZM48.5047 43.3133C48.5576 43.3266 48.6121 43.3333 48.6667 43.3333H53.3333V44.6667H48.7487L44 43.4793V42.1873L48.5047 43.3133ZM41.3333 29.3333C40.597 29.3333 40 29.9303 40 30.6667V33.3333H42V32C42 31.6318 42.2985 31.3333 42.6667 31.3333H45.3333V30.6667C45.3333 29.9303 44.7364 29.3333 44 29.3333H41.3333ZM40 34.6667H42.6667C43.0349 34.6667 43.3333 34.3682 43.3333 34V32.6667H45.3333V34.1707L40 35.7707V34.6667ZM45.3333 38.6667V35.5627L40 37.1627V38.6667H45.3333ZM45.3333 40V41.146L43.4953 40.6867C43.2961 40.6368 43.0851 40.6814 42.9232 40.8078C42.7613 40.9341 42.6667 41.128 42.6667 41.3333V44C42.6667 44.3058 42.8747 44.5724 43.1713 44.6467L45.3333 45.1873V47.3333H40V40H45.3333ZM53.3333 55.3333V48.6667H40V50H51.3333C51.7015 50 52 50.2985 52 50.6667V55.3333H53.3333ZM36 45.3333C36 45.7015 35.7015 46 35.3333 46H30.276L31.138 45.138C31.3983 44.8777 31.3983 44.4557 31.138 44.1953L30.276 43.3333H36V45.3333ZM34.6667 40V42H38.6667V39.3333H35.3333C34.9651 39.3333 34.6667 39.6318 34.6667 40ZM40.6667 66.6667C38.8266 66.6645 37.3355 65.1734 37.3333 63.3333H38.6667C38.6667 64.4379 39.5621 65.3333 40.6667 65.3333C41.7712 65.3333 42.6667 64.4379 42.6667 63.3333H44C43.9978 65.1734 42.5067 66.6645 40.6667 66.6667ZM40.6667 64C41.0349 64 41.3333 63.7015 41.3333 63.3333H40C40 63.7015 40.2985 64 40.6667 64ZM45.3333 62H36V55.3333C36 54.9651 36.2985 54.6667 36.6667 54.6667H44.6667C45.0349 54.6667 45.3333 54.9651 45.3333 55.3333V62ZM46.6667 62H48V54.6667C47.9978 52.8266 46.5067 51.3355 44.6667 51.3333H36.6667C34.8266 51.3355 33.3355 52.8266 33.3333 54.6667V62H34.6667V55.3333C34.6667 54.2288 35.5621 53.3333 36.6667 53.3333H44.6667C45.7712 53.3333 46.6667 54.2288 46.6667 55.3333V62ZM47.9267 51.3333H50.6667V58H49.3333V54.6667C49.3335 53.4113 48.8262 52.2091 47.9267 51.3333ZM62 66.6667C60.16 66.6645 58.6689 65.1734 58.6667 63.3333H60C60 64.4379 60.8954 65.3333 62 65.3333C63.1046 65.3333 64 64.4379 64 63.3333H65.3333C65.3311 65.1734 63.84 66.6645 62 66.6667ZM62 64C62.3682 64 62.6667 63.7015 62.6667 63.3333H61.3333C61.3333 63.7015 61.6318 64 62 64ZM60 62V57.3333H61.3333V56H60V46H62.8L66.492 62H60ZM49.3333 62H58.6667V59.3333H49.3333V62ZM64 56H62.6667V57.3333H64V56ZM37.3333 56H38.6667V57.3333H37.3333V56ZM41.3333 56H40V57.3333H41.3333V56ZM42.6667 56H44V57.3333H42.6667V56ZM56.6667 43.3333C57.0349 43.3333 57.3333 43.6318 57.3333 44C57.3333 44.3682 57.0349 44.6667 56.6667 44.6667C56.2985 44.6667 56 44.3682 56 44C56 43.6318 56.2985 43.3333 56.6667 43.3333ZM28 32.6667H36.6667V34H28V32.6667ZM37.3333 35.3333H29.3333V36.6667H37.3333V35.3333Z" fill="#495567"/>
      </symbol>
      
      <symbol id="apple-icon" width="25" height="28" viewBox="0 0 25 28">
        <path fill-rule="evenodd" clip-rule="evenodd" d="M13.5501 2.23259C14.5379 1.02638 16.2329 0.100093 17.6831 0C17.9262 1.64899 17.2547 3.26406 16.3672 4.4058C15.4185 5.63236 13.7813 6.5807 12.1968 6.5315C11.9078 4.95207 12.649 3.32683 13.5501 2.23259ZM18.0165 6.53333C19.9466 6.53333 21.9903 7.57732 23.4446 9.37626C18.677 11.9705 19.4494 18.7283 24.2667 20.5378C23.6044 21.9952 23.2865 22.645 22.4325 23.936C21.241 25.7367 19.5631 27.9805 17.4803 27.9963C16.6241 28.0052 16.0624 27.7496 15.4568 27.474C14.7549 27.1545 13.9939 26.8082 12.647 26.8157C11.3076 26.8222 10.5345 27.1643 9.82292 27.4791C9.20166 27.7539 8.62736 28.008 7.7641 27.9998C5.68308 27.9823 4.09213 25.9574 2.90069 24.1567C-0.428589 19.1242 -0.780161 13.2159 1.27423 10.0734C2.73556 7.84182 5.04031 6.53684 7.20478 6.53684C8.35838 6.53684 9.28812 6.86569 10.1741 7.17908C10.9805 7.4643 11.7507 7.73672 12.6204 7.73672C13.4252 7.73672 14.0869 7.48802 14.8086 7.21674C15.6745 6.89129 16.6268 6.53333 18.0165 6.53333Z" fill="#495567"/>
      </symbol>'

      <symbol id="play-store-icon" width="24" height="28" viewBox="0 0 24 28">
        <path fill-rule="evenodd" clip-rule="evenodd" d="M1.35225 0.237091C2.077 -0.112337 2.90802 -0.0748034 3.60529 0.344932L17.4772 8.42299L13.504 12.4147L1.35225 0.237091ZM0 2.42141C0 2.04978 0.082467 1.68872 0.235771 1.36414L12.3848 13.5391L0.237885 25.7437C0.0829956 25.426 0 25.0702 0 24.697V2.42141ZM13.5056 14.6619L1.37344 26.8517C1.69538 27.0008 2.03794 27.0658 2.37996 27.0658C2.80234 27.0658 3.22367 26.9648 3.60534 26.7354L17.4799 18.6452L13.5056 14.6619ZM22.7456 11.4907C22.7504 11.4933 22.7556 11.4965 22.7604 11.4996C23.4767 11.9342 23.9044 12.6944 23.9044 13.5328C23.9044 14.3712 23.4767 15.1314 22.7604 15.5664C22.7556 15.5691 18.8966 17.8189 18.8966 17.8189L14.6242 13.5375L18.894 9.24766L22.7456 11.4907Z" fill="#495567"/>
      </symbol>

      <symbol id="facebook" width="24" height="24" viewBox="0 0 24 24">
        <path d="M22.675 0H1.325C0.593 0 0 0.593 0 1.325V22.676C0 23.407 0.593 24 1.325 24H12.82V14.706H9.692V11.084H12.82V8.413C12.82 5.313 14.713 3.625 17.479 3.625C18.804 3.625 19.942 3.724 20.274 3.768V7.008L18.356 7.009C16.852 7.009 16.561 7.724 16.561 8.772V11.085H20.148L19.681 14.707H16.561V24H22.677C23.407 24 24 23.407 24 22.675V1.325C24 0.593 23.407 0 22.675 0Z"/>
      </symbol>

      <symbol id="x" width="24" height="24" viewBox="0 0 24 24">
        <path d="M24 2.55699C23.117 2.94899 22.168 3.21299 21.172 3.33199C22.189 2.72299 22.97 1.75799 23.337 0.607986C22.386 1.17199 21.332 1.58199 20.21 1.80299C19.313 0.845986 18.032 0.247986 16.616 0.247986C13.437 0.247986 11.101 3.21399 11.819 6.29299C7.728 6.08799 4.1 4.12799 1.671 1.14899C0.381 3.36199 1.002 6.25699 3.194 7.72299C2.388 7.69699 1.628 7.47599 0.965 7.10699C0.911 9.38799 2.546 11.522 4.914 11.997C4.221 12.185 3.462 12.229 2.69 12.081C3.316 14.037 5.134 15.46 7.29 15.5C5.22 17.123 2.612 17.848 0 17.54C2.179 18.937 4.768 19.752 7.548 19.752C16.69 19.752 21.855 12.031 21.543 5.10599C22.505 4.41099 23.34 3.54399 24 2.55699Z" />
      </symbol>

      <symbol id="instagram" width="24" height="24" viewBox="0 0 24 24">
        <path fill-rule="evenodd" clip-rule="evenodd" d="M12 0C8.741 0 8.333 0.014 7.053 0.072C2.695 0.272 0.273 2.69 0.073 7.052C0.014 8.333 0 8.741 0 12C0 15.259 0.014 15.668 0.072 16.948C0.272 21.306 2.69 23.728 7.052 23.928C8.333 23.986 8.741 24 12 24C15.259 24 15.668 23.986 16.948 23.928C21.302 23.728 23.73 21.31 23.927 16.948C23.986 15.668 24 15.259 24 12C24 8.741 23.986 8.333 23.928 7.053C23.732 2.699 21.311 0.273 16.949 0.073C15.668 0.014 15.259 0 12 0ZM12 2.163C15.204 2.163 15.584 2.175 16.85 2.233C20.102 2.381 21.621 3.924 21.769 7.152C21.827 8.417 21.838 8.797 21.838 12.001C21.838 15.206 21.826 15.585 21.769 16.85C21.62 20.075 20.105 21.621 16.85 21.769C15.584 21.827 15.206 21.839 12 21.839C8.796 21.839 8.416 21.827 7.151 21.769C3.891 21.62 2.38 20.07 2.232 16.849C2.174 15.584 2.162 15.205 2.162 12C2.162 8.796 2.175 8.417 2.232 7.151C2.381 3.924 3.896 2.38 7.151 2.232C8.417 2.175 8.796 2.163 12 2.163ZM5.838 12C5.838 8.597 8.597 5.838 12 5.838C15.403 5.838 18.162 8.597 18.162 12C18.162 15.404 15.403 18.163 12 18.163C8.597 18.163 5.838 15.403 5.838 12ZM12 16C9.791 16 8 14.21 8 12C8 9.791 9.791 8 12 8C14.209 8 16 9.791 16 12C16 14.21 14.209 16 12 16ZM16.965 5.595C16.965 4.8 17.61 4.155 18.406 4.155C19.201 4.155 19.845 4.8 19.845 5.595C19.845 6.39 19.201 7.035 18.406 7.035C17.61 7.035 16.965 6.39 16.965 5.595Z" />
      </symbol>


      <symbol id="line" width="974" height="15" viewBox="0 0 974 15">
        <path d="M973.5 7.5H0.5" stroke="#E5ECF4" stroke-width="15"/>
      </symbol>

    </svg>